Coordinates
nRows=11
nColumns=24

# SIMM Motion File Header:
name Coordinates
datacolumns 24
datarows 11
otherdata 1
range 0.53566999999999998000 0.54566999999999999000

Units are S.I. units (second, meters, Newtons, ...)
Angles are in degrees.

endheader
time	pelvis_tx	pelvis_ty	pelvis_tz	pelvis_tilt	pelvis_list	pelvis_rotation	hip_flexion_r	hip_adduction_r	hip_rotation_r	knee_angle_r	ankle_angle_r	subtalar_angle_r	mtp_angle_r	hip_flexion_l	hip_adduction_l	hip_rotation_l	knee_angle_l	ankle_angle_l	subtalar_angle_l	mtp_angle_l	lumbar_extension	lumbar_bending	lumbar_rotation
      0.53566999999999998000	      1.25576498008527480000	      0.65547984326964737000	     -0.25280933850074211000	      6.40957534528102710000	     -1.67620560802298750000	     -0.39209209356267527000	     20.65692151499957400000	      2.11458719898681570000	     -1.27285198254331510000	    -20.68683023344533500000	     -5.06421556199366220000	      0.00000000000001897077	     -0.00000000000001604149	    -27.68734134684049800000	     -0.29665541147491670000	     -5.08072508406480420000	    -19.74211834028902500000	     -5.37751369596847880000	      0.00000000000012435377	     -0.00000000000058306181	    -22.98591354970029600000	      5.80800143085495610000	     -4.40917803189906720000
      0.53666999999999998000	      1.25701718620878760000	      0.65565043188540151000	     -0.25268214677868467000	      6.41748522221892340000	     -1.70608498691238510000	     -0.38964722366227472000	     20.61209581262073300000	      2.16083691152693990000	     -1.23236533825616010000	    -20.85509388181099100000	     -4.96107539637709220000	      0.00000000000001885921	     -0.00000000000001611029	    -27.56618723530179700000	     -0.34472224064831414000	     -5.09597567331927250000	    -20.07220075013075800000	     -5.81146718249536050000	      0.00000000000012486141	     -0.00000000000058507713	    -22.99517426040869200000	      5.88270726955252510000	     -4.45030409805713050000
      0.53766999999999998000	      1.25826788208888020000	      0.65582351118040028000	     -0.25255680106600475000	      6.42509253476086960000	     -1.73536782735550640000	     -0.38671110379051871000	     20.56480003058474200000	      2.20593531484880630000	     -1.19108620638975450000	    -21.01780301566089900000	     -4.85596841245193290000	      0.00000000000001877774	     -0.00000000000001619122	    -27.44195679067387400000	     -0.39258621819511613000	     -5.11072066393633140000	    -20.40451916568540700000	     -6.24688904084575380000	      0.00000000000012537917	     -0.00000000000058712713	    -23.00394992679570900000	      5.95682340207186730000	     -4.49131796683216060000
      0.53866999999999998000	      1.25951699303426870000	      0.65599902385806208000	     -0.25243325212403617000	      6.43238715193895680000	     -1.76403818077760400000	     -0.38329544466128262000	     20.51507374485582600000	      2.24987379639854050000	     -1.14910881742865280000	    -21.17497932568887700000	     -4.74897283292179220000	      0.00000000000001867841	     -0.00000000000001625364	    -27.31466426487871100000	     -0.44023190160013204000	     -5.12501018490753960000	    -20.73900968702300000000	     -6.68346735077993340000	      0.00000000000012590178	     -0.00000000000058918696	    -23.01223332495558100000	      6.03030815374217970000	     -4.53216805321192680000
      0.53966999999999998000	      1.26076444561362640000	      0.65617691353956287000	     -0.25231144738283706000	      6.43935942600232190000	     -1.79208016150555590000	     -0.37941275171967398000	     20.46295817899200000000	      2.29264426651369440000	     -1.10652800851924700000	    -21.32665000413613800000	     -4.64016817330178810000	      0.00000000000001854844	     -0.00000000000001632072	    -27.18432537734987200000	     -0.48764346953775367000	     -5.13889600474772830000	    -21.07560700967559000000	     -7.12088602952828520000	      0.00000000000012643280	     -0.00000000000059127852	    -23.02001803233796600000	      6.10311969826186300000	     -4.57280250972707060000
      0.54066999999999998000	      1.26201016826125390000	      0.65635712471246888000	     -0.25219133111697861000	      6.44600018879877460000	     -1.81947802129921410000	     -0.37507631288603177000	     20.40849614359105900000	      2.33423922659033560000	     -1.06343900958235360000	    -21.47284759763373100000	     -4.52963510726282160000	      0.00000000000001844063	     -0.00000000000001643314	    -27.05095750894355800000	     -0.53480478650083318000	     -5.15243146034195390000	    -21.41424455365903900000	     -7.55882523903954610000	      0.00000000000012695444	     -0.00000000000059334562	    -23.02729837506179300000	      6.17521617290957630000	     -4.61316924218966220000
      0.54166999999999998000	      1.26325409140417990000	      0.65653960278775747000	     -0.25207284459955581000	      6.45230076728943120000	     -1.84621616233377140000	     -0.37030017845167357000	     20.35173194482645100000	      2.37465176915122370000	     -1.01993722095578090000	    -21.61360986436993100000	     -4.41745534032621380000	      0.00000000000001832877	     -0.00000000000001652257	    -26.91457970355615000000	     -0.58169942535423413000	     -5.16567134176894080000	    -21.75485450385800600000	     -7.99696178453234640000	      0.00000000000012748017	     -0.00000000000059542389	    -23.03406940896576700000	      6.24655572846654920000	     -4.65321595609150140000
      0.54266999999999999000	      1.26449614757831160000	      0.65672429415167155000	     -0.25195592627078300000	      6.45825299527941790000	     -1.87227914859321090000	     -0.36509913679304890000	     20.29271129524551800000	      2.41387556722370220000	     -0.97611798627717572000	    -21.74897961493479300000	     -4.30371158077515940000	      0.00000000000001823024	     -0.00000000000001655172	    -26.77521266135512700000	     -0.62831068608645446000	     -5.17867175967249780000	    -22.09736787581369200000	     -8.43496926610363750000	      0.00000000000012800531	     -0.00000000000059749939	    -23.04032689919662500000	      6.31709657958497490000	     -4.69289020880527200000
      0.54366999999999999000	      1.26573627150507370000	      0.65691114621185842000	     -0.25184051194126417000	      6.46384922622658030000	     -1.89765171219714010000	     -0.35948868711449533000	     20.23148121383029300000	      2.45190485801445270000	     -0.93207636053931764000	    -21.87900453120504100000	     -4.18848739569835880000	      0.00000000000001809648	     -0.00000000000001650141	    -26.63287872622358800000	     -0.67462161402608856000	     -5.19149000243832950000	    -22.44171459215632000000	     -8.87251842113847640000	      0.00000000000012852593	     -0.00000000000059955493	    -23.04606731433151600000	      6.38679704777403770000	     -4.73213947276837920000
      0.54466999999999999000	      1.26697440009989770000	      0.65710010742128622000	     -0.25172653505494141000	      6.46908234564766090000	     -1.92231876772241760000	     -0.35348501653845277000	     20.16808992359869300000	      2.48873445580716000000	     -0.88790692095736667000	    -22.00373700300371400000	     -4.07186698085499450000	      0.00000000000001794143	     -0.00000000000001639432	    -26.48760187662681500000	     -0.72061503553652850000	     -5.20418442202224170000	    -22.78782349791738000000	     -9.30927794535368490000	      0.00000000000012904844	     -0.00000000000060160955	    -23.05128783813659500000	      6.45561560617849750000	     -4.77091119876042490000
      0.54566999999999999000	      1.26821047245175360000	      0.65729112728266292000	     -0.25161392699537205000	      6.47394577805363800000	     -1.94626542914485530000	     -0.34710497438043969000	     20.10258675489211900000	      2.52435976404549000000	     -0.84370358695024139000	    -22.12323395717263400000	     -3.95393504095266970000	      0.00000000000001774713	     -0.00000000000001623224	    -26.33940771086612600000	     -0.76627359539017559000	     -5.21681430993739160000	    -23.13562238302414900000	     -9.74491507836782490000	      0.00000000000012957172	     -0.00000000000060366324	    -23.05598638002016900000	      6.52351092859747170000	     -4.80915288265475120000
